<?xml version="1.0" encoding="UTF-8"?>
<svg width="27px" height="30px" viewBox="0 0 27 30" version="1.1" xmlns="http://www.w3.org/2000/svg" xmlns:xlink="http://www.w3.org/1999/xlink">
    <!-- Generator: Sketch 48.2 (47327) - http://www.bohemiancoding.com/sketch -->
    <title>icons_doctype_pdf</title>
    <desc>Created with Sketch.</desc>
    <defs></defs>
    <g id="KIT" stroke="none" stroke-width="1" fill="none" fill-rule="evenodd" transform="translate(-3578.000000, -697.000000)">
        <g id="icons_doctype_pdf" transform="translate(3578.000000, 697.000000)" fill-rule="nonzero">
            <path d="M2.390625,1.66533454e-15 C1.078125,1.66533454e-15 0,1.078125 0,2.390625 L0,27.609375 C0,28.921875 1.078125,30 2.390625,30 L23.859375,30 C25.171875,30 26.25,28.921875 26.25,27.609375 L26.25,9.515625 L17.390625,0 L2.390625,0 L2.390625,1.66533454e-15 Z" id="Shape" fill="#84E1FF"></path>
            <path d="M26.25,9.5625 L26.25,10.03125 L20.25,10.03125 C20.25,10.03125 17.296875,9.421875 17.390625,6.890625 C17.390625,6.890625 17.484375,9.5625 20.203125,9.5625 L26.25,9.5625 Z" id="Shape" fill="#0F93D0"></path>
            <path d="M17.390625,0 L17.390625,6.84375 C17.390625,7.640625 17.90625,9.5625 20.25,9.5625 L26.25,9.5625 L17.390625,0 Z" id="Shape" fill="#FFFFFF" opacity="0.5"></path>
            <path d="M6.984375,22.96875 L5.4375,22.96875 L5.4375,24.890625 C5.4375,25.078125 5.296875,25.21875 5.0625,25.21875 C4.875,25.21875 4.734375,25.078125 4.734375,24.890625 L4.734375,20.109375 C4.734375,19.828125 4.96875,19.59375 5.25,19.59375 L6.984375,19.59375 C8.109375,19.59375 8.765625,20.390625 8.765625,21.28125 C8.765625,22.21875 8.109375,22.96875 6.984375,22.96875 L6.984375,22.96875 Z M6.9375,20.203125 L5.4375,20.203125 L5.4375,22.359375 L6.9375,22.359375 C7.59375,22.359375 8.0625,21.9375 8.0625,21.28125 C8.0625,20.625 7.59375,20.203125 6.9375,20.203125 L6.9375,20.203125 Z M11.8125,25.21875 L10.40625,25.21875 C10.125,25.21875 9.890625,24.984375 9.890625,24.703125 L9.890625,20.109375 C9.890625,19.828125 10.125,19.59375 10.40625,19.59375 L11.8125,19.59375 C13.546875,19.59375 14.71875,20.8125 14.71875,22.40625 C14.71875,24 13.59375,25.21875 11.8125,25.21875 L11.8125,25.21875 Z M11.8125,20.203125 L10.59375,20.203125 L10.59375,24.5625 L11.8125,24.5625 C13.171875,24.5625 13.96875,23.578125 13.96875,22.359375 C14.015625,21.1875 13.21875,20.203125 11.8125,20.203125 L11.8125,20.203125 Z M19.453125,20.203125 L16.734375,20.203125 L16.734375,22.03125 L19.40625,22.03125 C19.59375,22.03125 19.6875,22.171875 19.6875,22.359375 C19.6875,22.546875 19.546875,22.640625 19.40625,22.640625 L16.734375,22.640625 L16.734375,24.890625 C16.734375,25.078125 16.59375,25.21875 16.359375,25.21875 C16.171875,25.21875 16.03125,25.078125 16.03125,24.890625 L16.03125,20.109375 C16.03125,19.828125 16.265625,19.59375 16.546875,19.59375 L19.453125,19.59375 C19.640625,19.59375 19.734375,19.734375 19.734375,19.921875 C19.78125,20.0625 19.640625,20.203125 19.453125,20.203125 L19.453125,20.203125 Z" id="Shape" fill="#FFFFFF"></path>
        </g>
    </g>
</svg>