<?xml version="1.0" encoding="UTF-8"?>
<svg width="14px" height="16px" viewBox="0 0 14 16" version="1.1" xmlns="http://www.w3.org/2000/svg" xmlns:xlink="http://www.w3.org/1999/xlink">
    <!-- Generator: Sketch 48.2 (47327) - http://www.bohemiancoding.com/sketch -->
    <title>icons_delete</title>
    <desc>Created with Sketch.</desc>
    <defs>
        <path d="M13.3076923,3.07692308 L9.46153846,3.07692308 L9.46153846,1.84615385 C9.46153846,1.16923077 8.90769231,0.615384615 8.23076923,0.615384615 L6.38461538,0.615384615 C5.70769231,0.615384615 5.15384615,1.16923077 5.15384615,1.84615385 L5.15384615,3.07692308 L1.30769231,3.07692308 C1.06153846,3.07692308 0.846153846,3.29230769 0.846153846,3.53846154 L0.846153846,4.46153846 C0.846153846,4.70769231 1.06153846,4.92307692 1.30769231,4.92307692 L13.3076923,4.92307692 C13.5538462,4.92307692 13.7692308,4.70769231 13.7692308,4.46153846 L13.7692308,3.53846154 C13.7692308,3.29230769 13.5538462,3.07692308 13.3076923,3.07692308 Z M6.38461538,2.15384615 C6.38461538,1.96923077 6.50769231,1.84615385 6.69230769,1.84615385 L7.92307692,1.84615385 C8.10769231,1.84615385 8.23076923,1.96923077 8.23076923,2.15384615 L8.23076923,3.07692308 L6.38461538,3.07692308 L6.38461538,2.15384615 Z M12.0769231,6.15384615 L2.53846154,6.15384615 C2.29230769,6.15384615 2.07692308,6.36923077 2.07692308,6.61538462 L2.07692308,13.8461538 C2.07692308,14.7076923 2.75384615,15.3846154 3.61538462,15.3846154 L11,15.3846154 C11.8615385,15.3846154 12.5384615,14.7076923 12.5384615,13.8461538 L12.5384615,6.61538462 C12.5384615,6.36923077 12.3230769,6.15384615 12.0769231,6.15384615 Z M6.38461538,12.9230769 C6.38461538,13.1076923 6.26153846,13.2307692 6.07692308,13.2307692 L5.46153846,13.2307692 C5.27692308,13.2307692 5.15384615,13.1076923 5.15384615,12.9230769 L5.15384615,8.61538462 C5.15384615,8.43076923 5.27692308,8.30769231 5.46153846,8.30769231 L6.07692308,8.30769231 C6.26153846,8.30769231 6.38461538,8.43076923 6.38461538,8.61538462 L6.38461538,12.9230769 Z M9.46153846,12.9230769 C9.46153846,13.1076923 9.33846154,13.2307692 9.15384615,13.2307692 L8.53846154,13.2307692 C8.35384615,13.2307692 8.23076923,13.1076923 8.23076923,12.9230769 L8.23076923,8.61538462 C8.23076923,8.43076923 8.35384615,8.30769231 8.53846154,8.30769231 L9.15384615,8.30769231 C9.33846154,8.30769231 9.46153846,8.43076923 9.46153846,8.61538462 L9.46153846,12.9230769 Z" id="path-1"></path>
    </defs>
    <g id="1-4合同管理-项目情况—XXXXI项目-土地类档案-新建合同（新建）多合同主体-（附件）" stroke="none" stroke-width="1" fill="none" fill-rule="evenodd" transform="translate(-566.000000, -728.000000)">
        <g id="icons_delete" transform="translate(566.000000, 728.000000)">
            <mask id="mask-2" fill="white">
                <use xlink:href="#path-1"></use>
            </mask>
            <use id="Mask" fill="#8CA0B3" xlink:href="#path-1"></use>
        </g>
    </g>
</svg>