<?xml version="1.0" encoding="UTF-8"?>
<svg width="14px" height="14px" viewBox="0 0 14 14" version="1.1" xmlns="http://www.w3.org/2000/svg" xmlns:xlink="http://www.w3.org/1999/xlink">
    <!-- Generator: Sketch 48.2 (47327) - http://www.bohemiancoding.com/sketch -->
    <title>icons_remove_link</title>
    <desc>Created with Sketch.</desc>
    <defs>
        <path d="M6.45368614,9.86237061 C6.29214768,9.86237061 6.13060922,9.83544754 5.96907075,9.78160138 C5.80753229,9.75467831 5.61907075,9.70083215 5.45753229,9.646986 C5.34983998,9.62006292 5.24214768,9.646986 5.18830152,9.70083215 L5.08060922,9.80852446 C4.40753229,10.4816014 3.30368614,10.5623706 2.57676306,9.94313985 C1.79599383,9.24313985 1.74214768,8.03160138 2.49599383,7.30467831 L4.27291691,5.52775523 C4.5152246,5.28544754 4.78445537,5.15083215 5.08060922,5.07006292 C5.45753229,4.96237061 5.86137845,4.98929369 6.21137845,5.15083215 C6.42676306,5.23160138 6.64214768,5.36621677 6.80368614,5.55467831 C6.88445537,5.63544754 6.9652246,5.74313985 7.04599383,5.87775523 C7.12676306,6.03929369 7.34214768,6.06621677 7.47676306,5.93160138 L8.14983998,5.25852446 C8.25753229,5.15083215 8.25753229,5.01621677 8.17676306,4.90852446 C8.06907075,4.77390908 7.96137845,4.66621677 7.85368614,4.53160138 C7.69214768,4.37006292 7.47676306,4.20852446 7.28830152,4.07390908 C6.93830152,3.85852446 6.58830152,3.72390908 6.18445537,3.64313985 C5.45753229,3.50852446 4.67676306,3.61621677 3.97676306,3.99313985 C3.70753229,4.12775523 3.4652246,4.31621677 3.24983998,4.53160138 L1.52676306,6.25467831 C0.288301523,7.49313985 0.180609216,9.51237061 1.39214768,10.8046783 C2.65753229,12.1508322 4.78445537,12.2046783 6.07676306,10.8854475 L6.66907075,10.2931398 C6.80368614,10.1585245 6.69599383,9.88929369 6.45368614,9.86237061 Z M10.8959938,6.06621677 C12.1883015,4.77390908 12.1613784,2.646986 10.8152246,1.38160138 C9.52291691,0.196985999 7.50368614,0.27775523 6.2652246,1.51621677 L5.72676306,2.05467831 C5.5652246,2.21621677 5.67291691,2.48544754 5.88830152,2.51237061 C6.21137845,2.53929369 6.56137845,2.59313985 6.88445537,2.70083215 C6.99214768,2.72775523 7.09983998,2.70083215 7.15368614,2.646986 L7.26137845,2.53929369 C7.93445537,1.86621677 9.03830152,1.78544754 9.7652246,2.40467831 C10.5459938,3.10467831 10.59984,4.31621677 9.84599383,5.04313985 L8.06907075,6.82006292 C7.82676306,7.06237061 7.55753229,7.196986 7.26137845,7.27775523 C6.88445537,7.38544754 6.48060922,7.35852446 6.13060922,7.196986 C5.9152246,7.11621677 5.69983998,6.98160138 5.53830152,6.79313985 C5.45753229,6.71237061 5.37676306,6.60467831 5.32291691,6.496986 C5.24214768,6.33544754 5.02676306,6.30852446 4.89214768,6.44313985 L4.24599383,7.08929369 C4.13830152,7.196986 4.13830152,7.33160138 4.21907075,7.43929369 C4.32676306,7.57390908 4.40753229,7.68160138 4.54214768,7.81621677 C4.73060922,8.00467831 4.91907075,8.13929369 5.10753229,8.27390908 C5.45753229,8.48929369 5.80753229,8.62390908 6.21137845,8.70467831 C6.93830152,8.83929369 7.71907075,8.73160138 8.41907075,8.35467831 C8.68830152,8.22006292 8.93060922,8.03160138 9.14599383,7.81621677 L10.8959938,6.06621677 L10.8959938,6.06621677 Z M12.1344554,11.046986 L13.3729169,9.80852446 C13.4806092,9.70083215 13.4806092,9.53929369 13.3729169,9.43160138 L12.6190708,8.67775523 C12.5113784,8.57006292 12.34984,8.57006292 12.2421477,8.67775523 L11.0306092,9.94313985 L9.87291691,8.78544754 C9.7652246,8.67775523 9.60368614,8.67775523 9.49599383,8.78544754 L8.74214768,9.53929369 C8.63445537,9.646986 8.63445537,9.80852446 8.74214768,9.91621677 L9.89983998,11.0739091 L8.76907075,12.2046783 C8.66137845,12.3123706 8.66137845,12.4739091 8.76907075,12.5816014 L9.52291691,13.3354475 C9.63060922,13.4431398 9.79214768,13.4431398 9.89983998,13.3354475 L11.0306092,12.2046783 L12.2421477,13.4162168 C12.34984,13.5239091 12.5113784,13.5239091 12.6190708,13.4162168 L13.3729169,12.6623706 C13.4806092,12.5546783 13.4806092,12.3931398 13.3729169,12.2854475 L12.1344554,11.046986 Z" id="path-1"></path>
    </defs>
    <g id="1-4合同管理-项目情况—XXXXI项目-土地类档案-新建合同（新建）多合同主体-（附件）" stroke="none" stroke-width="1" fill="none" fill-rule="evenodd" transform="translate(-987.000000, -840.000000)">
        <g id="icons_remove_link" transform="translate(987.000000, 840.000000)">
            <mask id="mask-2" fill="white">
                <use xlink:href="#path-1"></use>
            </mask>
            <use id="Mask" fill="#8CA0B3" xlink:href="#path-1"></use>
        </g>
    </g>
</svg>