<?xml version="1.0" encoding="UTF-8"?>
<svg width="15px" height="11px" viewBox="0 0 15 11" version="1.1" xmlns="http://www.w3.org/2000/svg" xmlns:xlink="http://www.w3.org/1999/xlink">
    <!-- Generator: Sketch 48.2 (47327) - http://www.bohemiancoding.com/sketch -->
    <title>icons_offline_cached_re</title>
    <desc>Created with Sketch.</desc>
    <defs>
        <path d="M7.15384615,0.0769230769 C4.81538462,0.0769230769 2.93846154,1.95384615 2.93846154,4.29230769 C2.93846154,4.38461538 2.93846154,4.50769231 2.96923077,4.6 C1.43076923,4.72307692 0.230769231,6.01538462 0.230769231,7.55384615 C0.230769231,9.21538462 1.55384615,10.5384615 3.21538462,10.5384615 L6.75384615,10.5384615 L7.43076923,10.5384615 L11.2153846,10.5384615 C13.0923077,10.5076923 14.6,8.96923077 14.6,7.06153846 C14.6307692,5.18461538 13.1538462,3.67692308 11.3076923,3.61538462 C11,1.61538462 9.24615385,0.0769230769 7.15384615,0.0769230769 Z" id="path-1"></path>
        <path d="M6.34600004,3.42000002 C6.49800004,3.26800002 6.49800004,3.05900002 6.34600004,2.90700002 L3.49600002,0.114000001 C3.34400002,-0.0380000002 3.11600002,-0.0380000002 2.96400002,0.114000001 L0.114000001,2.90700002 C-0.0380000002,3.05900002 -0.0380000002,3.26800002 0.114000001,3.42000002 L0.646000004,3.93300002 C0.798000005,4.08500002 1.02600001,4.08500002 1.17800001,3.93300002 L2.07100001,3.05900002 C2.22300001,2.90700002 2.48900001,3.02100002 2.48900001,3.23000002 L2.48900001,8.36000005 C2.48900001,8.55000005 2.66000002,8.74000005 2.86900002,8.74000005 L3.62900002,8.74000005 C3.83800002,8.74000005 4.00900002,8.53100005 4.00900002,8.36000005 L4.00900002,3.23000002 C4.00900002,3.00200002 4.27500003,2.90700002 4.42700003,3.05900002 L5.32000003,3.93300002 C5.47200003,4.08500002 5.70000003,4.08500002 5.85200003,3.93300002 L6.34600004,3.42000002 Z" id="path-3"></path>
    </defs>
    <g id="Artboard" stroke="none" stroke-width="1" fill="none" fill-rule="evenodd" transform="translate(-464.000000, -247.000000)">
        <g id="icons_offline_cached_re" transform="translate(464.000000, 247.000000)">
            <mask id="mask-2" fill="white">
                <use xlink:href="#path-1"></use>
            </mask>
            <use id="Mask" fill="#8CA0B3" fill-rule="nonzero" xlink:href="#path-1"></use>
            <g id="icons/utility/arrowup" mask="url(#mask-2)">
                <g transform="translate(4.000000, 4.000000)">
                    <mask id="mask-4" fill="white">
                        <use xlink:href="#path-3"></use>
                    </mask>
                    <use id="Mask" stroke="none" fill="#FFFFFF" fill-rule="nonzero" xlink:href="#path-3"></use>
                </g>
            </g>
        </g>
    </g>
</svg>