<?xml version="1.0" encoding="UTF-8"?>
<svg width="27px" height="30px" viewBox="0 0 27 30" version="1.1" xmlns="http://www.w3.org/2000/svg" xmlns:xlink="http://www.w3.org/1999/xlink">
    <!-- Generator: Sketch 48.2 (47327) - http://www.bohemiancoding.com/sketch -->
    <title>icons_doctype_attachment</title>
    <desc>Created with Sketch.</desc>
    <defs></defs>
    <g id="KIT" stroke="none" stroke-width="1" fill="none" fill-rule="evenodd" transform="translate(-3386.000000, -795.000000)">
        <g id="icons_doctype_attachment" transform="translate(3386.000000, 795.000000)" fill-rule="nonzero">
            <path d="M2.390625,1.66533454e-15 C1.078125,1.66533454e-15 0,1.03125 0,2.34375 L0,27.609375 C0,28.921875 1.078125,30 2.390625,30 L23.859375,30 C25.171875,30 26.25,28.921875 26.25,27.609375 L26.25,9.515625 L17.390625,0 L2.390625,0 L2.390625,1.66533454e-15 Z" id="Shape" fill="#B1CDE7"></path>
            <path d="M26.25,9.5625 L26.25,10.03125 L20.25,10.03125 C20.25,10.03125 17.296875,9.421875 17.34375,6.84375 C17.34375,6.84375 17.484375,9.5625 20.203125,9.5625 L26.25,9.5625 Z" id="Shape" fill="#617F9B"></path>
            <path d="M17.390625,0 L17.390625,6.84375 C17.390625,7.59375 17.90625,9.5625 20.25,9.5625 L26.25,9.5625 L17.390625,0 Z" id="Shape" fill="#FFFFFF" opacity="0.5"></path>
            <path d="M12.46875,19.453125 C12.984375,18.890625 12.984375,18.046875 12.46875,17.484375 C11.953125,16.921875 11.0625,16.96875 10.546875,17.484375 L6.234375,21.796875 C5.71875,22.3125 5.71875,23.203125 6.234375,23.71875 C6.75,24.234375 7.640625,24.28125 8.15625,23.71875 L10.828125,21.09375 C10.96875,20.953125 10.96875,20.71875 10.828125,20.578125 C10.6875,20.4375 10.40625,20.390625 10.265625,20.578125 L8.578125,22.21875 C8.34375,22.453125 8.015625,22.453125 7.78125,22.21875 C7.546875,21.984375 7.546875,21.609375 7.78125,21.375 L9.421875,19.734375 C10.03125,19.125 11.015625,19.125 11.625,19.734375 C12.234375,20.34375 12.234375,21.328125 11.625,21.9375 L9,24.5625 C8.015625,25.546875 6.421875,25.546875 5.390625,24.5625 C4.40625,23.578125 4.40625,21.984375 5.390625,21 L9.703125,16.6875 C10.6875,15.703125 12.328125,15.703125 13.3125,16.6875 C14.296875,17.671875 14.296875,19.265625 13.3125,20.25 L12.890625,20.671875 C12.84375,20.25 12.703125,19.828125 12.421875,19.453125 L12.46875,19.453125 L12.46875,19.453125 Z" id="Shape" fill="#FFFFFF"></path>
        </g>
    </g>
</svg>