<?xml version="1.0" encoding="UTF-8"?>
<svg width="27px" height="30px" viewBox="0 0 27 30" version="1.1" xmlns="http://www.w3.org/2000/svg" xmlns:xlink="http://www.w3.org/1999/xlink">
    <!-- Generator: Sketch 48.2 (47327) - http://www.bohemiancoding.com/sketch -->
    <title>icons_doctype_excel</title>
    <desc>Created with Sketch.</desc>
    <defs></defs>
    <g id="KIT" stroke="none" stroke-width="1" fill="none" fill-rule="evenodd" transform="translate(-3578.000000, -749.000000)">
        <g id="icons_doctype_excel" transform="translate(3578.000000, 749.000000)" fill-rule="nonzero">
            <path d="M2.390625,1.66533454e-15 C1.078125,1.66533454e-15 0,1.078125 0,2.390625 L0,27.609375 C0,28.921875 1.078125,30 2.390625,30 L23.859375,30 C25.171875,30 26.25,28.921875 26.25,27.609375 L26.25,9.515625 L17.390625,0 L2.390625,0 L2.390625,1.66533454e-15 Z" id="Shape" fill="#8FDE9D"></path>
            <path d="M9.09375,25.265625 C9,25.265625 8.90625,25.21875 8.859375,25.171875 L7.125,22.828125 L5.34375,25.171875 C5.296875,25.21875 5.203125,25.265625 5.109375,25.265625 C4.921875,25.265625 4.78125,25.125 4.78125,24.9375 C4.78125,24.890625 4.78125,24.796875 4.828125,24.75 L6.65625,22.359375 L4.96875,20.0625 C4.921875,20.015625 4.875,19.96875 4.875,19.875 C4.875,19.734375 5.015625,19.546875 5.203125,19.546875 C5.34375,19.546875 5.4375,19.59375 5.484375,19.6875 L7.125,21.84375 L8.71875,19.6875 C8.765625,19.59375 8.859375,19.546875 8.953125,19.546875 C9.140625,19.546875 9.328125,19.6875 9.328125,19.875 C9.328125,19.96875 9.28125,20.015625 9.28125,20.0625 L7.546875,22.3125 L9.375,24.75 C9.421875,24.796875 9.46875,24.890625 9.46875,24.9375 C9.46875,25.125 9.28125,25.265625 9.09375,25.265625 L9.09375,25.265625 Z M13.78125,25.21875 L11.25,25.21875 C10.96875,25.21875 10.734375,24.984375 10.734375,24.703125 L10.734375,19.875 C10.734375,19.6875 10.875,19.546875 11.109375,19.546875 C11.296875,19.546875 11.4375,19.6875 11.4375,19.875 L11.4375,24.609375 L13.78125,24.609375 C13.96875,24.609375 14.109375,24.75 14.109375,24.890625 C14.109375,25.078125 13.96875,25.21875 13.78125,25.21875 Z M17.0625,25.3125 C16.21875,25.3125 15.5625,25.03125 15.09375,24.609375 C15,24.5625 15,24.46875 15,24.375 C15,24.1875 15.09375,24 15.328125,24 C15.375,24 15.46875,24.046875 15.515625,24.09375 C15.890625,24.421875 16.453125,24.703125 17.109375,24.703125 C18.09375,24.703125 18.421875,24.140625 18.421875,23.71875 C18.421875,22.265625 15.09375,23.0625 15.09375,21.09375 C15.09375,20.15625 15.890625,19.5 17.015625,19.5 C17.71875,19.5 18.375,19.734375 18.796875,20.109375 C18.890625,20.15625 18.9375,20.25 18.9375,20.34375 C18.9375,20.53125 18.796875,20.71875 18.609375,20.71875 C18.5625,20.71875 18.46875,20.671875 18.421875,20.625 C18,20.296875 17.484375,20.15625 16.96875,20.15625 C16.265625,20.15625 15.796875,20.484375 15.796875,21.046875 C15.796875,22.3125 19.125,21.5625 19.125,23.671875 C19.125,24.46875 18.5625,25.3125 17.0625,25.3125 L17.0625,25.3125 Z" id="Shape" fill="#FFFFFF"></path>
            <path d="M26.25,9.5625 L26.25,10.03125 L20.25,10.03125 C20.25,10.03125 17.25,9.421875 17.34375,6.84375 C17.34375,6.84375 17.4375,9.5625 20.15625,9.5625 L26.25,9.5625 Z" id="Shape" fill="#349C42"></path>
            <path d="M17.34375,0 L17.34375,6.84375 C17.34375,7.59375 17.90625,9.5625 20.25,9.5625 L26.25,9.5625 L17.34375,0 Z" id="Shape" fill="#FFFFFF" opacity="0.5"></path>
        </g>
    </g>
</svg>