<?xml version="1.0" encoding="UTF-8"?>
<svg width="27px" height="30px" viewBox="0 0 27 30" version="1.1" xmlns="http://www.w3.org/2000/svg" xmlns:xlink="http://www.w3.org/1999/xlink">
    <!-- Generator: Sketch 48.2 (47327) - http://www.bohemiancoding.com/sketch -->
    <title>icons_doctype_image</title>
    <desc>Created with Sketch.</desc>
    <defs></defs>
    <g id="KIT" stroke="none" stroke-width="1" fill="none" fill-rule="evenodd" transform="translate(-3386.000000, -749.000000)">
        <g id="icons_doctype_image" transform="translate(3386.000000, 749.000000)" fill-rule="nonzero">
            <path d="M2.390625,0 C1.078125,0 0.046875,1.078125 0.046875,2.390625 L0.046875,27.65625 C0.046875,28.96875 1.078125,30 2.390625,30 L23.859375,30 C25.171875,30 26.25,28.96875 26.25,27.65625 L26.25,9.5625 L17.390625,0 L2.390625,0 L2.390625,0 Z" id="Shape" fill="#91DAC7"></path>
            <path d="M26.25,9.5625 L26.25,10.03125 L20.25,10.03125 C20.25,10.03125 17.296875,9.421875 17.34375,6.84375 C17.34375,6.84375 17.484375,9.5625 20.203125,9.5625 L26.25,9.5625 Z" id="Shape" fill="#37BB91"></path>
            <path d="M17.390625,0 L17.390625,6.84375 C17.390625,7.59375 17.90625,9.5625 20.25,9.5625 L26.25,9.5625 L17.390625,0 Z" id="Shape" fill="#FFFFFF" opacity="0.5"></path>
            <path d="M4.734375,25.171875 L4.734375,15.375 L14.53125,15.375 L14.53125,25.171875 L4.734375,25.171875 L4.734375,25.171875 Z M13.546875,16.359375 L5.71875,16.359375 L5.71875,22.265625 L13.546875,22.265625 L13.546875,16.359375 Z M9.046875,20.296875 L10.875,17.8125 L11.484375,18.796875 L12.09375,18.609375 L12.5625,21.234375 L6.421875,21.234375 L8.0625,19.6875 L9.046875,20.296875 L9.046875,20.296875 Z M7.265625,18.5625 C6.84375,18.5625 6.46875,18.28125 6.46875,17.859375 C6.46875,17.484375 6.84375,17.15625 7.265625,17.15625 C7.6875,17.15625 8.015625,17.484375 8.015625,17.859375 C8.015625,18.28125 7.6875,18.5625 7.265625,18.5625 L7.265625,18.5625 Z" id="Shape" fill="#FFFFFF"></path>
        </g>
    </g>
</svg>