<?xml version="1.0" encoding="UTF-8"?>
<svg width="27px" height="30px" viewBox="0 0 27 30" version="1.1" xmlns="http://www.w3.org/2000/svg" xmlns:xlink="http://www.w3.org/1999/xlink">
    <!-- Generator: Sketch 48.2 (47327) - http://www.bohemiancoding.com/sketch -->
    <title>icons_doctype_word</title>
    <desc>Created with Sketch.</desc>
    <defs></defs>
    <g id="KIT" stroke="none" stroke-width="1" fill="none" fill-rule="evenodd" transform="translate(-3482.000000, -645.000000)">
        <g id="icons_doctype_word" transform="translate(3482.000000, 645.000000)" fill-rule="nonzero">
            <path d="M2.390625,1.66533454e-15 C1.078125,1.66533454e-15 0,1.03125 0,2.34375 L0,27.609375 C0,28.921875 1.078125,30 2.390625,30 L23.859375,30 C25.171875,30 26.25,28.921875 26.25,27.609375 L26.25,9.515625 L17.390625,0 L2.390625,0 L2.390625,1.66533454e-15 Z" id="Shape" fill="#77DDFF"></path>
            <path d="M26.25,9.5625 L26.25,10.03125 L20.25,10.03125 C20.25,10.03125 17.296875,9.421875 17.34375,6.84375 C17.34375,6.84375 17.484375,9.5625 20.203125,9.5625 L26.25,9.5625 Z" id="Shape" fill="#32BEFF"></path>
            <path d="M17.390625,0 L17.390625,6.84375 C17.390625,7.59375 17.90625,9.5625 20.25,9.5625 L26.25,9.5625 L17.390625,0 Z" id="Shape" fill="#FFFFFF" opacity="0.5"></path>
            <path d="M6.65625,25.265625 L5.25,25.265625 C4.96875,25.265625 4.734375,25.03125 4.734375,24.75 L4.734375,20.109375 C4.734375,19.828125 4.96875,19.640625 5.25,19.640625 L6.65625,19.640625 C8.4375,19.640625 9.5625,20.859375 9.5625,22.453125 C9.5625,24.046875 8.4375,25.265625 6.65625,25.265625 Z M6.65625,20.25 L5.4375,20.25 L5.4375,24.609375 L6.65625,24.609375 C8.0625,24.609375 8.859375,23.625 8.859375,22.453125 C8.859375,21.234375 8.0625,20.25 6.65625,20.25 L6.65625,20.25 Z M13.453125,25.359375 C11.765625,25.359375 10.640625,24.09375 10.640625,22.453125 C10.640625,20.8125 11.765625,19.546875 13.453125,19.546875 C15.09375,19.546875 16.21875,20.765625 16.21875,22.453125 C16.21875,24.09375 15.09375,25.359375 13.453125,25.359375 Z M13.453125,20.15625 C12.1875,20.15625 11.390625,21.140625 11.390625,22.453125 C11.390625,23.765625 12.1875,24.703125 13.453125,24.703125 C14.671875,24.703125 15.515625,23.765625 15.515625,22.453125 C15.515625,21.140625 14.671875,20.15625 13.453125,20.15625 L13.453125,20.15625 Z M22.078125,20.34375 C22.125,20.390625 22.171875,20.484375 22.171875,20.578125 C22.171875,20.765625 22.03125,20.90625 21.84375,20.90625 C21.75,20.90625 21.65625,20.859375 21.609375,20.8125 C21.28125,20.390625 20.71875,20.15625 20.203125,20.15625 C18.984375,20.15625 18.046875,21.09375 18.046875,22.453125 C18.046875,23.765625 18.984375,24.703125 20.203125,24.703125 C20.71875,24.703125 21.234375,24.515625 21.609375,24.09375 C21.65625,24 21.75,23.953125 21.84375,23.953125 C22.03125,23.953125 22.171875,24.140625 22.171875,24.328125 C22.171875,24.421875 22.125,24.46875 22.078125,24.5625 C21.65625,25.03125 21.046875,25.359375 20.203125,25.359375 C18.5625,25.359375 17.296875,24.1875 17.296875,22.453125 C17.296875,20.71875 18.5625,19.546875 20.203125,19.546875 C21.046875,19.546875 21.65625,19.875 22.078125,20.34375 Z" id="Shape" fill="#FFFFFF"></path>
        </g>
    </g>
</svg>