<?xml version="1.0" encoding="UTF-8"?>
<svg width="16px" height="16px" viewBox="0 0 16 16" version="1.1" xmlns="http://www.w3.org/2000/svg" xmlns:xlink="http://www.w3.org/1999/xlink">
    <!-- Generator: Sketch 48.2 (47327) - http://www.bohemiancoding.com/sketch -->
    <title>icons_attach</title>
    <desc>Created with Sketch.</desc>
    <defs>
        <path d="M5.42307692,11.2692308 C5.60769231,11.4538462 5.88461538,11.4230769 6.06923077,11.2692308 L9.14615385,8.19230769 C9.36153846,7.97692308 9.73076923,7.94615385 10.0076923,8.19230769 C10.2846154,8.43846154 10.2538462,8.86923077 10.0076923,9.11538462 L6.22307692,12.8384615 C5.39230769,13.6692308 4.00769231,13.6692308 3.17692308,12.8384615 L3.14615385,12.8076923 C2.31538462,11.9769231 2.31538462,10.5923077 3.14615385,9.76153846 L9.82307692,3.08461538 C10.6538462,2.25384615 12.0384615,2.25384615 12.8692308,3.08461538 L12.9,3.11538462 C13.7307692,3.94615385 13.7307692,5.33076923 12.9,6.16153846 L12.8692308,6.19230769 C12.7153846,6.34615385 12.6846154,6.56153846 12.8076923,6.74615385 C12.9923077,7.08461538 13.1461538,7.45384615 13.2384615,7.82307692 C13.3,8.06923077 13.5769231,8.13076923 13.7615385,7.97692308 C14.0076923,7.73076923 14.2230769,7.48461538 14.2230769,7.48461538 C15.7923077,5.91538462 15.7923077,3.36153846 14.2230769,1.79230769 L14.1615385,1.79230769 C12.5923077,0.223076923 10.0384615,0.223076923 8.46923077,1.79230769 L1.79230769,8.43846154 C0.223076923,10.0076923 0.223076923,12.5615385 1.79230769,14.1307692 L1.85384615,14.1923077 C3.42307692,15.7615385 5.94615385,15.7615385 7.51538462,14.1923077 L11.3307692,10.4076923 C12.3153846,9.42307692 12.2846154,7.82307692 11.2692308,6.83846154 C10.2846154,5.88461538 8.68461538,5.94615385 7.73076923,6.93076923 L4.71538462,9.94615385 C4.53076923,10.1307692 4.53076923,10.4384615 4.71538462,10.6230769 L5.42307692,11.2692308 L5.42307692,11.2692308 Z" id="path-1"></path>
    </defs>
    <g id="1-4合同管理-项目情况—XXXXI项目-土地类档案-新建合同（新建）多合同主体-（附件）" stroke="none" stroke-width="1" fill="none" fill-rule="evenodd" transform="translate(-326.000000, -695.000000)">
        <g id="icons_attach" transform="translate(326.000000, 695.000000)">
            <mask id="mask-2" fill="white">
                <use xlink:href="#path-1"></use>
            </mask>
            <use id="Mask" fill="#8CA0B3" xlink:href="#path-1"></use>
        </g>
    </g>
</svg>